REM DIRINDEX 1\6,1\2\7,1\2\8,1\2\9,1\3\10,1\3\11,1\4\12,1\4\13,1\4\14,1\5\15,1\5\16,1\5\17
REM DIRNAME cjc040,folder01,folder02,folder03,folder04,folder05,folder06,folder07,folder08,folder09,folder10,folder11,folder12,folder13,folder14,folder15,folder16
TITLE ""
FILE "P2Q_t_0789-0806.mp3" MP3
  TRACK 01 AUDIO
    TITLE "10:cjc040_3232"
    INDEX 01 00:00:00
  TRACK 02 AUDIO
    TITLE "0:"
    INDEX 01 00:01:03
  TRACK 03 AUDIO
    TITLE "11:cjc040_3233"
    INDEX 01 00:01:58
  TRACK 04 AUDIO
    TITLE "0:"
    INDEX 01 00:03:37
  TRACK 05 AUDIO
    TITLE "10:cjc040_3234"
    INDEX 01 00:04:13
  TRACK 06 AUDIO
    TITLE "0:"
    INDEX 01 00:05:32
  TRACK 07 AUDIO
    TITLE "11:cjc040_3235"
    INDEX 01 00:06:06
  TRACK 08 AUDIO
    TITLE "0:"
    INDEX 01 00:07:47
  TRACK 09 AUDIO
    TITLE "10:cjc040_3236"
    INDEX 01 00:08:24
  TRACK 10 AUDIO
    TITLE "0:"
    INDEX 01 00:09:45
  TRACK 11 AUDIO
    TITLE "11:cjc040_3237"
    INDEX 01 00:10:27
  TRACK 12 AUDIO
    TITLE "0:"
    INDEX 01 00:13:10
  TRACK 13 AUDIO
    TITLE "10:cjc040_3238"
    INDEX 01 00:13:65
  TRACK 14 AUDIO
    TITLE "0:"
    INDEX 01 00:15:09
  TRACK 15 AUDIO
    TITLE "11:cjc040_3239"
    INDEX 01 00:15:68
  TRACK 16 AUDIO
    TITLE "0:"
    INDEX 01 00:18:37
  TRACK 17 AUDIO
    TITLE "10:cjc040_3240"
    INDEX 01 00:19:11
  TRACK 18 AUDIO
    TITLE "0:"
    INDEX 01 00:20:08
  TRACK 19 AUDIO
    TITLE "11:cjc040_3241"
    INDEX 01 00:20:71
  TRACK 20 AUDIO
    TITLE "0:"
    INDEX 01 00:23:04
  TRACK 21 AUDIO
    TITLE "10:cjc040_3242"
    INDEX 01 00:23:61
  TRACK 22 AUDIO
    TITLE "0:"
    INDEX 01 00:25:05
  TRACK 23 AUDIO
    TITLE "11:cjc040_3243"
    INDEX 01 00:25:58
  TRACK 24 AUDIO
    TITLE "0:"
    INDEX 01 00:28:31
  TRACK 25 AUDIO
    TITLE "10:cjc040_3244"
    INDEX 01 00:29:07
  TRACK 26 AUDIO
    TITLE "0:"
    INDEX 01 00:30:03
  TRACK 27 AUDIO
    TITLE "11:cjc040_3245"
    INDEX 01 00:30:63
  TRACK 28 AUDIO
    TITLE "0:"
    INDEX 01 00:33:32
  TRACK 29 AUDIO
    TITLE "10:cjc040_3246"
    INDEX 01 00:34:14
  TRACK 30 AUDIO
    TITLE "0:"
    INDEX 01 00:35:10
  TRACK 31 AUDIO
    TITLE "11:cjc040_3247"
    INDEX 01 00:35:72
  TRACK 32 AUDIO
    TITLE "0:"
    INDEX 01 00:39:45
  TRACK 33 AUDIO
    TITLE "10:cjc040_3248"
    INDEX 01 00:40:24
  TRACK 34 AUDIO
    TITLE "0:"
    INDEX 01 00:41:47
  TRACK 35 AUDIO
    TITLE "11:cjc040_3249"
    INDEX 01 00:42:23
  TRACK 36 AUDIO
    TITLE "0:"
    INDEX 01 00:45:16
  TRACK 37 AUDIO
    TITLE "10:cjc040_3250"
    INDEX 01 00:45:71
  TRACK 38 AUDIO
    TITLE "0:"
    INDEX 01 00:47:46
  TRACK 39 AUDIO
    TITLE "11:cjc040_3251"
    INDEX 01 00:48:24
  TRACK 40 AUDIO
    TITLE "0:"
    INDEX 01 00:51:15
  TRACK 41 AUDIO
    TITLE "10:cjc040_3252"
    INDEX 01 00:51:69
  TRACK 42 AUDIO
    TITLE "0:"
    INDEX 01 00:53:02
  TRACK 43 AUDIO
    TITLE "11:cjc040_3253"
    INDEX 01 00:53:62
  TRACK 44 AUDIO
    TITLE "0:"
    INDEX 01 00:56:14
  TRACK 45 AUDIO
    TITLE "10:cjc040_3254"
    INDEX 01 00:56:69
  TRACK 46 AUDIO
    TITLE "0:"
    INDEX 01 00:57:68
  TRACK 47 AUDIO
    TITLE "11:cjc040_3255"
    INDEX 01 00:58:44
  TRACK 48 AUDIO
    TITLE "0:"
    INDEX 01 01:01:03
  TRACK 49 AUDIO
    TITLE "10:cjc040_3256"
    INDEX 01 01:01:56
  TRACK 50 AUDIO
    TITLE "0:"
    INDEX 01 01:02:73
  TRACK 51 AUDIO
    TITLE "11:cjc040_3257"
    INDEX 01 01:03:49
  TRACK 52 AUDIO
    TITLE "0:"
    INDEX 01 01:07:41
  TRACK 53 AUDIO
    TITLE "10:cjc040_3258"
    INDEX 01 01:08:23
  TRACK 54 AUDIO
    TITLE "0:"
    INDEX 01 01:09:50
  TRACK 55 AUDIO
    TITLE "11:cjc040_3259"
    INDEX 01 01:10:31
  TRACK 56 AUDIO
    TITLE "0:"
    INDEX 01 01:13:18
  TRACK 57 AUDIO
    TITLE "10:cjc040_3260"
    INDEX 01 01:13:69
  TRACK 58 AUDIO
    TITLE "0:"
    INDEX 01 01:14:72
  TRACK 59 AUDIO
    TITLE "11:cjc040_3261"
    INDEX 01 01:15:56
  TRACK 60 AUDIO
    TITLE "0:"
    INDEX 01 01:18:27
  TRACK 61 AUDIO
    TITLE "10:cjc040_3262"
    INDEX 01 01:19:05
  TRACK 62 AUDIO
    TITLE "0:"
    INDEX 01 01:20:24
  TRACK 63 AUDIO
    TITLE "11:cjc040_3263"
    INDEX 01 01:21:08
  TRACK 64 AUDIO
    TITLE "0:"
    INDEX 01 01:22:52
  TRACK 65 AUDIO
    TITLE "10:cjc040_3264"
    INDEX 01 01:23:34
  TRACK 66 AUDIO
    TITLE "0:"
    INDEX 01 01:24:49
  TRACK 67 AUDIO
    TITLE "11:cjc040_3265"
    INDEX 01 01:25:25
  TRACK 68 AUDIO
    TITLE "0:"
    INDEX 01 01:26:48
  TRACK 69 AUDIO
    TITLE "10:cjc040_3266"
    INDEX 01 01:27:30
  TRACK 70 AUDIO
    TITLE "0:"
    INDEX 01 01:28:29
  TRACK 71 AUDIO
    TITLE "11:cjc040_3267"
    INDEX 01 01:29:07
  TRACK 72 AUDIO
    TITLE "0:"
    INDEX 01 01:34:57
